:version 1.10
:name ASF
:units
  mass 1
  length 1
  angle deg
:documentation
  ASF file generated by Kaydara
:root
  axis xyz
  order  tx ty tz rx ry rz
  position 0 0 0
  orientation 0 0 0
:bonedata
  begin
    id 1
    name RightUpLegDummy
    direction -0.65628 -0.754516 0.00165102
    length 4.76918
    axis 0 0 0 xyz
  end
  begin
    id 2
    name RightUpLeg
    direction -0.145584 -0.923362 0.355256
    length 17.9961
    axis -24.7611 -13.1006 1.78531 xyz
    dof rx ry rz
  end
  begin
    id 3
    name RightLeg
    direction 0.263379 0.172355 -0.949171
    length 13.3386
    axis 89.6202 -21.1929 12.3855 xyz
    dof rx ry rz
  end
  begin
    id 4
    name RightFoot
    direction 0.224283 -0.968777 -0.105675
    length 5.86697
    axis 56.995 -39.6905 17.3365 xyz
    dof rx ry rz
  end
  begin
    id 5
    name RightToes
    direction -0.0806345 -0.9037 0.420506
    length 4.75197
    axis 146.825 -39.7828 17.6019 xyz
    dof rx ry rz
  end
  begin
    id 6
    name SpineDummy
    direction -3.39852e-014 1 9.33296e-014
    length 8.13779
    axis 0 0 0 xyz
  end
  begin
    id 7
    name Spine
    direction -0.156609 0.733703 0.661176
    length 7.14978
    axis 41.2365 5.68757 17.0844 xyz
    dof rx ry rz
  end
  begin
    id 8
    name Spine1
    direction 0 0 0
    length 0
    axis 42.8809 47.8308 -3.36039 xyz
    dof rx ry rz
  end
  begin
    id 9
    name HEadDummy
    direction 0.546431 0.701947 0.456819
    length 3.55512
    axis 42.8809 47.8308 -3.36039 xyz
  end
  begin
    id 10
    name HEad
    direction 0.23444 0.828559 0.508457
    length 7.35827
    axis 51.1864 49.2662 27.4903 xyz
    dof rx ry rz
  end
  begin
    id 11
    name LeftShoulder1Dummy
    direction 0.431183 0.475873 -0.766568
    length 2.49352
    axis 42.8809 47.8308 -3.36039 xyz
  end
  begin
    id 12
    name LeftShoulder1
    direction 0.268187 -0.383402 -0.883786
    length 4.48604
    axis -119.517 0.106469 35.1736 xyz
    dof rx ry rz
  end
  begin
    id 13
    name LeftArm
    direction 0.380567 -0.703221 -0.600541
    length 10.1142
    axis -5.41825 36.2925 7.8293 xyz
    dof rx ry rz
  end
  begin
    id 14
    name LeftForeArm
    direction 0.541071 -0.732356 -0.413396
    length 9.39839
    axis 4.65387 33.7604 7.81644 xyz
    dof rx ry rz
  end
  begin
    id 15
    name LeftHand
    direction 0.847511 -0.389379 -0.360707
    length 3.66142
    axis 7.65593 21.1436 -24.6758 xyz
    dof rx ry rz
  end
  begin
    id 16
    name RightShoulderDummy
    direction -0.692546 0.541855 0.476208
    length 2.49352
    axis 42.8809 47.8308 -3.36039 xyz
  end
  begin
    id 17
    name RightShoulder
    direction -0.870808 -0.316653 0.376065
    length 4.48602
    axis 141.571 51.133 -100.254 xyz
    dof rx ry rz
  end
  begin
    id 18
    name RightArm
    direction 0.366897 -0.87275 0.322015
    length 10.1142
    axis 92.3258 71.2036 138.917 xyz
    dof rx ry rz
  end
  begin
    id 19
    name RightForeArm
    direction 0.702487 -0.694568 0.155197
    length 9.39835
    axis 153.863 41.5092 -176.604 xyz
    dof rx ry rz
  end
  begin
    id 20
    name RightHand
    direction 0.79502 -0.601276 0.0800636
    length 3.66142
    axis 154.247 4.59222 142.9 xyz
    dof rx ry rz
  end
  begin
    id 21
    name LeftUpLegDummy
    direction 0.65628 -0.754516 0.00165102
    length 4.76919
    axis 0 0 0 xyz
  end
  begin
    id 22
    name LeftUpLeg
    direction -0.1277 -0.689368 0.713067
    length 17.9961
    axis -48.3385 -17.8675 0.791927 xyz
    dof rx ry rz
  end
  begin
    id 23
    name LeftLeg
    direction 0.109849 -0.991246 -0.0732378
    length 13.3386
    axis -2.05791 -7.30784 1.72042 xyz
    dof rx ry rz
  end
  begin
    id 24
    name LeftFoot
    direction 0.0448355 -0.272614 0.961078
    length 5.86697
    axis -18.7733 -7.89606 10.2113 xyz
    dof rx ry rz
  end
  begin
    id 25
    name LeftToes
    direction -0.18506 0.293668 0.937823
    length 4.75197
    axis 71.2267 -7.89606 10.2113 xyz
    dof rx ry rz
  end
:hierarchy
  begin
    root RightUpLegDummy SpineDummy LeftUpLegDummy
    RightUpLegDummy RightUpLeg
    RightUpLeg RightLeg
    RightLeg RightFoot
    RightFoot RightToes
    SpineDummy Spine
    Spine Spine1
    Spine1 HEadDummy LeftShoulder1Dummy RightShoulderDummy
    HEadDummy HEad
    LeftShoulder1Dummy LeftShoulder1
    LeftShoulder1 LeftArm
    LeftArm LeftForeArm
    LeftForeArm LeftHand
    RightShoulderDummy RightShoulder
    RightShoulder RightArm
    RightArm RightForeArm
    RightForeArm RightHand
    LeftUpLegDummy LeftUpLeg
    LeftUpLeg LeftLeg
    LeftLeg LeftFoot
    LeftFoot LeftToes
  end

:SAMPLES-PER-SECOND 30
:FULLY-SPECIFIED
:DEGREES
660
root  -1.14132 30.2141 -21.6738 3.47278 -57.8619 5.76337
RightUpLeg  -10.2277 37.012 -37.3943
RightLeg  -70.4443 -7.35627 -13.9841
RightFoot  9.02512 -14.719 21.2247
RightToes  -1.27222e-014 -6.36111e-015 6.36111e-015
Spine  1.47923 -10.1953 -5.02382
Spine1  6.05216 -8.4799 14.5363
HEad  -30.0832 -67.4759 11.85
LeftShoulder1  6.36111e-015 -1.33558e-015 6.49777e-015
LeftArm  12.0768 6.38637 10.5086
LeftForeArm  -13.0428 -17.1949 -0.731827
LeftHand  -1.70633 -2.65461 -11.8893
RightShoulder  -4.77083e-015 -6.36111e-015 -3.18055e-015
RightArm  46.58 -12.7427 -17.9171
RightForeArm  -19.5771 -7.03597 -10.2898
RightHand  5.16634 -6.07425 -21.5821
LeftUpLeg  -6.32352 -21.1269 24.2465
LeftLeg  8.64388 -43.8524 -9.68667
LeftFoot  -14.1414 4.9576 -28.9995
LeftToes  1.27222e-014 1.09105e-011 6.96064e-012
661
root  -0.667153 31.2595 -20.1677 5.83325 -61.0413 1.02961
RightUpLeg  -6.37976 35.6401 -34.4867
RightLeg  -81.9446 -10.6465 -8.49154
RightFoot  25.5274 -19.5772 15.3877
RightToes  -1.27222e-014 -6.36111e-015 6.36111e-015
Spine  -1.48063 -9.80588 -7.23839
Spine1  2.8454 -8.15859 18.8371
HEad  -29.6309 -65.7955 11.2474
LeftShoulder1  6.36111e-015 -1.33558e-015 6.49777e-015
LeftArm  22.5888 5.52359 4.53727
LeftForeArm  -13.8814 -15.1056 -1.16023
LeftHand  -1.70485 -2.45987 -12.8261
RightShoulder  -4.77083e-015 -6.36111e-015 -3.18055e-015
RightArm  52.0819 -18.442 -19.3376
RightForeArm  -20.2079 -6.65057 -10.6052
RightHand  4.02241 -4.8315 -17.9234
LeftUpLeg  -1.76023 -21.9415 22.799
LeftLeg  8.35743 -42.2918 -9.24094
LeftFoot  -15.6921 4.87282 -30.9785
LeftToes  1.27222e-014 1.09105e-011 6.96064e-012
662
root  -0.229902 32.5291 -18.8874 9.25372 -65.5189 -5.2446
RightUpLeg  -4.31106 28.9321 -30.2151
RightLeg  -90.3831 -11.6583 -3.17087
RightFoot  43.1234 -16.0417 1.82503
RightToes  -1.27222e-014 -6.36111e-015 6.36111e-015
Spine  -4.36125 -9.57512 -8.9416
Spine1  0.00192736 -7.59969 22.8469
HEad  -28.7289 -62.8166 11.531
LeftShoulder1  6.36111e-015 -1.33558e-015 6.49777e-015
LeftArm  34.4525 4.39 -2.83309
LeftForeArm  -16.0774 -15.5769 -1.07334
LeftHand  -1.38313 -1.3897 -12.299
RightShoulder  -4.77083e-015 -6.36111e-015 -3.18055e-015
RightArm  55.4113 -21.2174 -17.7993
RightForeArm  -21.4389 -9.32326 -9.53343
RightHand  3.01447 -3.74722 -14.201
LeftUpLeg  5.04591 -19.799 23.1485
LeftLeg  2.7289 -43.6782 -6.04557
LeftFoot  -14.8481 6.04915 -36.4205
LeftToes  1.27222e-014 1.09105e-011 6.96064e-012
663
root  0.11811 34.1448 -18.1528 14.4171 -69.9256 -12.9121
RightUpLeg  -2.41129 17.9752 -24.3547
RightLeg  -94.4372 -11.5194 -2.34116
RightFoot  47.6906 -7.95775 -7.41181
RightToes  -1.27222e-014 -6.36111e-015 6.36111e-015
Spine  -7.88834 -9.73182 -10.6292
Spine1  -0.33071 -6.75651 26.0953
HEad  -27.6677 -59.7207 12.0509
LeftShoulder1  6.36111e-015 -1.33558e-015 6.49777e-015
LeftArm  42.9991 4.73508 -9.13144
LeftForeArm  -16.4913 -21.5703 0.573616
LeftHand  -1.50461 -1.93875 -11.8338
RightShoulder  -4.77083e-015 -6.36111e-015 -3.18055e-015
RightArm  54.4046 -27.0866 -19.4316
RightForeArm  -19.2745 -8.22442 -9.67278
RightHand  2.61561 -3.82846 -11.7303
LeftUpLeg  13.9948 -17.4745 24.1911
LeftLeg  -10.9566 -40.9263 1.82626
LeftFoot  -10.9305 7.93571 -39.0982
LeftToes  1.27222e-014 1.09105e-011 6.96064e-012
664
root  0.333849 35.8589 -17.8666 21.7251 -73.5734 -21.7475
RightUpLeg  0.346089 7.06013 -18.4109
RightLeg  -95.0303 -11.3826 -5.6996
RightFoot  40.4403 -6.05509 -7.09248
RightToes  -1.27222e-014 -6.36111e-015 6.36111e-015
Spine  -12.4306 -10.6216 -12.5422
Spine1  1.61343 -6.2386 27.2153
HEad  -24.185 -57.9363 9.89482
LeftShoulder1  6.36111e-015 -1.33558e-015 6.49777e-015
LeftArm  46.4729 5.8254 -13.3373
LeftForeArm  -13.8212 -29.919 3.00727
LeftHand  -2.05603 -4.00469 -11.2891
RightShoulder  -4.77083e-015 -6.36111e-015 -3.18055e-015
RightArm  53.2725 -33.7396 -22.738
RightForeArm  -17.1833 -6.0235 -10.2293
RightHand  2.8307 -4.69686 -11.5877
LeftUpLeg  23.9739 -17.6859 23.5763
LeftLeg  -23.6536 -26.7958 4.68986
LeftFoot  -7.08605 7.84801 -33.1752
LeftToes  1.27222e-014 1.09105e-011 6.96064e-012
665
root  0.454266 37.2354 -17.6344 29.233 -76.745 -29.8649
RightUpLeg  2.73115 -0.927595 -14.012
RightLeg  -92.991 -11.2017 -8.05322
RightFoot  32.4846 -7.4627 -2.85044
RightToes  -1.27222e-014 -6.36111e-015 6.36111e-015
Spine  -17.4383 -12.2115 -13.7496
Spine1  3.29836 -6.78982 25.952
HEad  -17.6371 -57.0987 4.71436
LeftShoulder1  6.36111e-015 -1.33558e-015 6.49777e-015
LeftArm  46.8578 7.25009 -15.593
LeftForeArm  -9.66008 -36.5021 4.2927
LeftHand  -2.44987 -5.44289 -10.7723
RightShoulder  -4.77083e-015 -6.36111e-015 -3.18055e-015
RightArm  53.934 -38.0285 -23.2951
RightForeArm  -17.832 -6.97352 -9.94767
RightHand  3.13914 -4.92972 -12.9391
LeftUpLeg  28.4386 -2.77004 30.4831
LeftLeg  -31.1713 -17.6048 9.48104
LeftFoot  -5.38823 5.30402 -21.2872
LeftToes  1.27222e-014 1.09105e-011 6.96064e-012
666
root  0.584519 38.1499 -17.2588 31.7443 -79.6702 -32.5976
RightUpLeg  3.88909 -7.4311 -11.9037
RightLeg  -88.8822 -11.3887 -5.56964
RightFoot  28.4504 -5.94286 -3.16912
RightToes  -1.27222e-014 -6.36111e-015 6.36111e-015
Spine  -21.9002 -14.2819 -14.452
Spine1  3.15791 -8.25261 24.9713
HEad  -11.5237 -56.1488 -0.296134
LeftShoulder1  6.36111e-015 -1.33558e-015 6.49777e-015
LeftArm  45.9185 9.25849 -16.087
LeftForeArm  -6.3332 -39.66 4.23264
LeftHand  -2.2888 -4.96875 -10.042
RightShoulder  -4.77083e-015 -6.36111e-015 -3.18055e-015
RightArm  56.0159 -40.5299 -21.8071
RightForeArm  -19.4694 -8.67973 -9.49972
RightHand  3.02777 -4.27887 -13.3718
LeftUpLeg  31.3394 3.49952 32.8947
LeftLeg  -29.7578 -6.60211 1.77696
LeftFoot  -5.68396 3.41194 -13.8732
LeftToes  1.27222e-014 1.09105e-011 6.96064e-012
